<svg xmlns="http://www.w3.org/2000/svg" viewBox="0 0 1047 1001">
<g>
<path d="M 556.58 715.23 C555.47,715.99 495.72,716.10 492.96,715.35 C491.82,715.04 490.42,709.83 487.56,695.22 C485.44,684.37 483.35,674.55 482.93,673.40 C482.37,671.86 480.99,671.13 477.83,670.68 C473.56,670.08 452.73,664.33 446.09,661.93 C445.13,661.58 444.57,661.17 443.97,661.10 C442.38,660.90 440.49,663.08 430.06,675.10 C428.45,676.96 426.63,679.06 424.57,681.42 L 413.64 693.98 L 404.07 688.82 C383.41,677.69 357.04,661.24 357.02,659.46 C357.01,658.89 359.28,652.14 362.07,644.46 C364.86,636.78 368.03,627.95 369.12,624.84 L 371.09 619.18 L 356.31 604.39 L 341.52 589.60 L 321.93 596.30 C311.15,599.99 301.82,603.00 301.20,603.00 C299.10,603.00 285.95,581.82 273.16,557.81 C270.32,552.49 268.00,547.67 268.00,547.10 C268.00,546.53 275.60,539.53 284.89,531.54 L 301.77 517.01 L 298.92 507.92 C297.35,502.92 295.13,494.49 293.98,489.20 C292.84,483.90 291.69,479.36 291.44,479.11 C291.19,478.86 281.43,476.69 269.75,474.29 C258.08,471.89 248.10,469.50 247.59,468.99 C246.37,467.77 245.66,422.85 246.70,412.50 L 247.50 404.50 L 269.66 400.15 L 291.81 395.80 L 293.03 389.15 C293.71,385.49 295.77,377.18 297.63,370.67 C299.48,364.16 301.00,358.50 301.00,358.08 C301.00,357.65 293.58,350.86 284.50,342.97 C275.42,335.08 268.00,328.15 268.00,327.56 C268.01,325.83 283.12,298.46 291.88,284.31 L 300.02 271.18 L 321.17 278.44 L 342.31 285.71 L 371.05 256.50 L 364.03 236.50 C360.16,225.50 357.00,215.98 357.00,215.35 C357.00,213.96 373.53,203.18 391.74,192.68 C409.28,182.57 413.10,180.68 413.96,181.67 C427.36,197.18 442.31,214.00 442.70,214.00 C442.98,214.00 446.88,212.89 451.36,211.52 C455.83,210.16 464.67,207.76 471.00,206.18 L 482.50 203.32 L 486.89 181.27 L 491.29 159.23 L 508.62 158.51 C529.15,157.65 556.97,158.71 557.56,160.37 C557.78,160.99 559.55,170.05 561.49,180.50 C563.43,190.95 565.44,200.49 565.96,201.70 C566.61,203.19 568.12,204.09 570.70,204.52 C572.79,204.87 581.70,207.16 590.50,209.62 L 606.50 214.09 L 609.00 211.19 C612.83,206.74 633.10,183.68 634.53,182.13 C635.59,180.99 638.25,182.13 650.65,189.04 C669.36,199.45 692.00,213.88 691.99,215.37 C691.98,215.99 688.72,225.44 684.74,236.37 L 677.50 256.24 L 691.76 270.62 C699.61,278.53 706.36,285.02 706.76,285.04 C707.17,285.07 716.56,282.04 727.63,278.32 C745.24,272.41 747.98,271.74 749.45,272.96 C752.10,275.16 781.01,325.13 780.99,327.49 C780.99,328.04 773.52,334.98 764.40,342.89 C750.82,354.68 747.91,357.66 748.32,359.39 C748.60,360.55 750.78,369.23 753.16,378.68 L 757.50 395.85 L 801.50 404.50 L 802.13 411.50 C802.99,421.14 803.13,454.01 802.34,462.34 C801.80,468.03 801.34,469.32 799.60,470.01 C798.44,470.46 790.08,472.24 781.00,473.97 C763.83,477.23 759.05,477.81 757.23,480.44 C756.30,481.80 756.15,483.69 755.50,486.77 C754.60,491.02 752.38,499.55 750.57,505.71 L 747.28 516.92 L 764.14 531.59 C773.41,539.66 781.00,546.66 781.00,547.15 C781.00,548.57 763.75,579.83 756.30,591.91 C752.56,597.98 748.92,602.96 748.21,602.97 C747.50,602.99 738.30,600.08 727.77,596.50 C717.24,592.92 707.92,590.03 707.06,590.06 C706.20,590.10 702.58,593.53 699.00,597.69 C695.42,601.85 689.24,608.20 685.25,611.80 C681.26,615.39 678.00,618.92 678.00,619.63 C678.00,620.35 678.66,622.41 679.46,624.22 C681.89,629.69 692.00,658.01 691.98,659.30 C691.94,661.90 640.13,693.00 635.83,693.00 C635.05,693.00 628.14,685.80 620.47,677.00 C612.80,668.20 606.39,661.00 606.22,661.00 C606.05,661.00 600.08,662.79 592.97,664.97 C585.85,667.16 577.07,669.49 573.45,670.16 C569.46,670.89 566.55,671.99 566.07,672.93 C565.62,673.80 563.55,683.50 561.46,694.50 C559.37,705.50 557.17,714.83 556.58,715.23 ZM 509.80 702.32 C515.81,702.69 545.19,702.11 545.71,701.62 C545.82,701.51 547.74,692.43 549.97,681.46 C552.20,670.48 554.15,661.10 554.31,660.61 C554.46,660.13 560.65,658.50 568.05,656.99 C575.45,655.49 587.97,652.13 595.87,649.54 C607.78,645.62 610.45,645.04 611.45,646.16 C612.12,646.90 617.84,653.35 624.17,660.50 C625.11,661.56 625.98,662.54 626.79,663.46 C635.17,672.94 637.45,675.52 639.60,675.42 C640.61,675.37 641.59,674.72 643.17,673.91 C652.87,668.96 674.16,655.75 674.70,654.35 C675.02,653.52 672.91,646.46 670.02,638.67 C667.13,630.88 664.10,622.35 663.30,619.71 L 661.83 614.92 L 675.34 601.93 C682.78,594.79 691.85,585.40 695.50,581.07 L 702.14 573.20 L 722.19 580.09 C733.21,583.88 742.58,586.76 743.02,586.49 C744.00,585.88 757.83,562.36 761.47,555.12 C763.70,550.68 763.93,549.53 762.83,548.52 C762.10,547.85 755.05,541.77 747.16,535.00 C739.27,528.24 732.61,522.15 732.36,521.48 C732.10,520.82 733.66,514.47 735.82,507.38 C739.34,495.88 742.75,481.45 744.48,470.75 C744.82,468.69 745.21,467.00 745.37,467.00 C746.17,467.00 785.77,458.89 787.25,458.42 C788.84,457.92 789.00,456.02 789.00,437.56 C789.00,422.48 788.68,417.00 787.75,416.29 C787.06,415.76 777.28,413.63 766.00,411.55 C754.72,409.48 745.21,407.32 744.87,406.76 C744.52,406.21 743.93,403.00 743.56,399.63 C742.73,392.08 741.12,385.44 735.82,367.72 L 731.69 353.93 L 734.29 351.22 C735.73,349.72 742.97,343.33 750.40,337.00 C757.83,330.67 763.92,325.14 763.95,324.70 C764.01,323.75 746.66,293.49 744.17,290.21 L 742.44 287.93 L 730.47 292.02 C723.89,294.27 714.77,297.50 710.20,299.21 C705.30,301.03 701.54,301.93 701.02,301.40 C700.53,300.91 696.39,296.15 691.82,290.83 C687.24,285.51 678.46,276.58 672.31,270.99 L 661.11 260.83 L 664.16 252.67 C665.84,248.18 668.93,239.77 671.02,234.00 C673.12,228.23 675.12,222.76 675.48,221.85 C675.99,220.57 673.84,218.82 665.82,213.97 C645.75,201.83 639.68,198.71 638.04,199.73 C637.19,200.25 630.78,207.16 623.79,215.08 C616.80,222.99 610.62,229.63 610.05,229.82 C609.49,230.00 602.83,228.10 595.26,225.59 C581.48,221.01 568.67,217.71 559.74,216.45 C557.12,216.07 554.73,215.37 554.42,214.87 C554.12,214.38 552.14,204.92 550.02,193.85 C547.73,181.87 545.63,173.38 544.84,172.88 C544.10,172.41 534.40,172.02 523.27,172.02 C503.10,172.00 503.04,172.01 502.52,174.25 C501.57,178.42 495.00,214.04 495.00,215.03 C495.00,215.56 494.06,216.00 492.91,216.00 C485.86,216.00 454.72,224.19 443.52,228.99 L 439.01 230.92 L 436.43 228.21 C435.02,226.72 428.63,219.54 422.25,212.25 C415.87,204.96 410.18,199.00 409.62,199.00 C407.31,199.00 373.00,219.54 373.00,220.93 C373.00,221.37 373.87,223.93 374.93,226.62 C379.36,237.80 387.00,259.13 387.00,260.31 C387.00,261.01 381.94,266.09 375.75,271.61 C369.56,277.13 361.15,285.66 357.06,290.57 C352.97,295.48 349.09,300.10 348.44,300.84 C347.46,301.94 344.09,301.09 329.38,296.04 C319.54,292.67 310.25,289.50 308.71,288.99 C306.10,288.13 305.72,288.40 302.60,293.29 C297.53,301.21 284.99,323.62 285.06,324.62 C285.10,325.10 288.30,328.20 292.18,331.50 C312.90,349.12 316.50,352.64 316.35,355.08 C316.26,356.41 314.55,362.67 312.54,369.00 C310.53,375.33 307.68,386.62 306.22,394.10 L 303.56 407.69 L 283.03 411.50 C271.74,413.60 261.93,415.52 261.23,415.77 C260.25,416.13 260.02,420.99 260.23,437.36 L 260.50 458.49 L 278.50 462.09 C288.40,464.07 298.15,465.99 300.16,466.37 L 303.83 467.06 L 305.00 474.28 C306.69,484.74 310.59,500.40 314.02,510.55 C315.66,515.41 317.00,519.94 317.00,520.62 C317.00,521.31 309.80,528.06 301.00,535.62 C292.20,543.19 285.00,549.80 285.00,550.32 C285.00,551.52 293.63,566.83 300.77,578.31 C304.96,585.05 306.63,586.96 307.88,586.46 C308.77,586.10 311.63,585.16 314.24,584.37 C316.84,583.58 325.16,580.68 332.74,577.93 L 346.50 572.94 L 350.39 577.72 C352.53,580.35 361.70,589.85 370.76,598.83 L 387.23 615.16 L 383.56 625.33 C381.54,630.92 378.38,639.67 376.55,644.78 L 373.20 654.05 L 376.35 656.40 C382.48,660.96 408.61,676.00 410.41,676.00 C410.67,676.00 417.05,669.03 424.58,660.50 C432.11,651.97 438.66,645.00 439.14,645.00 C439.61,645.00 443.94,646.39 448.75,648.08 C461.62,652.62 470.13,654.93 482.97,657.38 L 494.44 659.57 L 495.17 663.04 C495.58,664.94 497.30,673.70 499.01,682.50 C500.72,691.30 502.34,699.27 502.61,700.21 C503.00,701.54 504.58,702.00 509.80,702.32 ZM 542.08 590.41 C532.50,600.91 524.40,609.59 524.08,609.69 C523.76,609.79 511.12,596.21 496.00,579.51 L 468.50 549.14 L 442.15 549.07 L 415.80 549.00 L 416.14 522.95 L 416.47 496.89 L 407.49 488.17 C402.54,483.37 389.39,470.71 378.25,460.02 C367.11,449.34 358.00,440.34 358.00,440.03 C358.00,439.72 365.31,432.53 374.25,424.05 C383.19,415.57 396.46,402.89 403.75,395.87 L 417.00 383.11 L 417.00 331.00 L 442.75 330.93 L 468.50 330.86 L 475.50 323.14 C479.35,318.90 491.68,305.21 502.90,292.71 C514.12,280.22 523.60,270.00 523.97,270.00 C524.74,270.00 533.99,280.07 561.00,310.29 L 579.50 330.98 L 605.25 330.99 L 631.00 331.00 L 631.00 382.82 L 656.25 407.23 C670.14,420.66 683.53,433.50 686.00,435.78 L 690.50 439.91 L 687.00 443.29 C685.08,445.14 671.69,458.04 657.25,471.94 L 631.00 497.22 L 631.00 549.00 L 605.25 549.05 L 579.50 549.10 L 569.50 560.21 C564.00,566.32 551.66,579.91 542.08,590.41 ZM 495.78 500.94 L 495.41 505.39 L 523.64 475.88 L 538.22 490.64 C549.19,501.75 552.71,504.80 552.44,502.95 C550.89,492.42 547.80,464.87 548.13,464.53 C548.36,464.30 556.86,465.22 567.03,466.57 C577.19,467.92 586.17,468.88 587.00,468.70 C587.96,468.49 583.47,463.25 574.59,454.23 L 560.68 440.09 L 564.50 435.80 C566.60,433.43 572.74,427.03 578.15,421.58 C583.56,416.12 587.77,411.43 587.50,411.16 C587.23,410.90 578.48,411.74 568.05,413.05 C557.62,414.35 548.82,415.16 548.51,414.84 C548.03,414.36 549.35,402.05 552.51,377.50 L 553.03 373.50 L 547.30 379.50 C544.16,382.80 537.54,389.72 532.61,394.89 L 523.65 404.28 L 519.62 399.89 C517.40,397.47 510.90,390.55 505.17,384.50 L 494.75 373.50 L 495.37 377.50 C497.37,390.42 500.04,414.30 499.53,414.80 C499.21,415.13 490.38,414.35 479.93,413.07 C469.48,411.79 460.62,411.04 460.26,411.41 C459.89,411.77 465.87,418.35 473.53,426.04 L 487.47 440.00 L 473.53 453.96 C465.87,461.65 459.88,468.22 460.23,468.56 C460.76,469.10 470.00,468.05 496.25,464.49 C496.58,464.44 496.89,464.39 497.17,464.35 C498.12,464.19 498.79,464.08 499.22,464.35 C500.25,465.01 499.87,467.89 498.59,477.70 C498.43,478.90 498.26,480.21 498.07,481.63 C497.01,489.81 495.98,498.50 495.78,500.94 ZM 315.78 827.25 L 315.50 839.50 L 295.00 840.07 L 295.00 754.00 L 315.75 754.01 C327.16,754.01 339.36,754.48 342.86,755.05 C354.31,756.90 363.26,762.77 367.79,771.38 C370.11,775.79 370.48,777.69 370.47,785.00 C370.46,792.50 370.11,794.13 367.52,798.83 C364.95,803.51 363.10,805.30 355.22,810.67 C353.62,811.76 353.64,812.02 355.58,814.67 C360.14,820.90 372.00,838.71 372.00,839.33 C372.00,839.70 367.07,840.00 361.04,840.00 L 350.09 840.00 L 341.84 827.50 L 333.60 815.00 L 316.06 815.00 ZM 695.00 814.50 L 695.00 840.00 L 685.47 840.00 C678.76,840.00 675.79,839.63 675.46,838.75 C675.19,838.06 675.09,818.82 675.24,796.00 L 675.50 754.50 L 684.00 754.25 L 692.50 754.00 L 703.00 766.68 C708.78,773.65 717.59,784.34 722.58,790.43 C723.80,791.91 724.89,793.27 725.88,794.49 C730.13,799.76 732.42,802.60 733.65,802.19 C735.09,801.72 735.07,796.81 735.02,786.15 C735.01,784.03 735.00,781.68 735.00,779.09 L 735.00 753.93 L 755.50 754.50 L 755.50 839.50 L 738.50 840.03 L 717.50 814.57 C705.95,800.57 696.16,789.09 695.75,789.06 C695.34,789.03 695.00,800.47 695.00,814.50 ZM 209.28 834.25 L 206.73 840.00 L 196.36 840.00 C190.66,840.00 186.00,839.64 186.00,839.20 C186.00,838.76 190.10,829.43 195.11,818.45 C200.13,807.48 208.66,788.60 214.07,776.50 L 223.92 754.50 L 245.38 754.50 L 264.30 795.00 C274.71,817.28 283.45,836.53 283.73,837.79 C284.25,840.07 284.23,840.07 273.87,839.79 L 263.50 839.50 L 259.08 830.31 L 254.67 821.12 L 234.74 821.16 L 214.81 821.21 L 213.32 824.85 C212.50,826.86 210.68,831.09 209.28,834.25 ZM 502.09 361.46 C513.79,373.86 523.69,384.00 524.10,384.00 C524.50,384.00 527.01,381.56 529.67,378.58 C532.33,375.60 541.85,365.47 550.83,356.07 C559.81,346.66 567.01,338.55 566.83,338.03 C566.08,335.90 524.99,290.50 523.81,290.50 C522.96,290.50 482.12,335.90 481.34,337.71 C481.05,338.37 490.39,349.06 502.09,361.46 ZM 501.72 565.34 C513.59,578.39 523.71,588.93 524.20,588.77 C525.45,588.35 567.00,542.84 567.00,541.89 C567.00,540.97 557.66,530.78 538.23,510.50 L 523.85 495.50 L 516.79 503.00 C512.91,507.12 503.07,517.50 494.94,526.05 L 480.14 541.61 ZM 400.00 461.85 C412.38,473.98 422.95,483.92 423.51,483.95 C424.06,483.98 434.41,474.10 446.50,462.00 L 468.49 439.99 L 424.13 395.64 L 417.82 401.30 C414.34,404.41 403.85,414.35 394.50,423.39 L 377.50 439.81 ZM 601.50 462.00 C613.59,474.10 623.80,483.89 624.18,483.75 C625.50,483.28 670.00,440.73 670.00,439.95 C670.00,439.19 625.48,396.75 624.16,396.25 C623.79,396.11 613.59,405.90 601.50,418.00 L 579.52 440.00 ZM 337.53 389.25 C336.19,394.12 335.60,394.98 333.72,394.90 C331.22,394.78 325.08,393.42 324.54,392.87 C323.84,392.14 328.85,374.28 332.50,364.50 C339.93,344.56 354.00,320.29 366.97,305.00 C381.06,288.40 402.77,269.71 419.50,259.78 C436.87,249.47 457.80,240.91 476.50,236.48 C485.34,234.38 490.67,233.51 507.86,231.38 L 512.22 230.84 L 511.83 223.91 C511.61,220.10 511.71,217.10 512.05,217.24 C512.40,217.38 520.19,221.97 529.37,227.43 C542.58,235.29 545.80,237.61 544.78,238.55 C544.08,239.21 536.41,243.83 527.75,248.82 L 512.00 257.90 L 512.00 243.70 L 503.26 244.38 C498.46,244.75 489.54,246.17 483.44,247.53 C447.92,255.50 418.38,271.33 392.35,296.34 C364.14,323.45 348.24,350.39 337.53,389.25 ZM 731.01 446.00 C727.06,452.88 723.45,458.88 723.01,459.35 C722.26,460.14 714.88,448.44 705.52,431.63 L 701.70 424.77 L 709.00 425.50 L 716.31 426.23 L 715.73 416.87 C714.17,391.36 702.47,356.84 687.41,333.30 C662.41,294.20 621.42,263.19 578.00,250.52 C572.78,249.00 568.38,247.65 568.23,247.52 C567.97,247.30 570.03,236.74 570.43,236.27 C570.99,235.61 589.94,241.39 598.83,244.93 C626.67,256.02 646.68,269.41 669.02,291.89 C676.46,299.38 685.04,308.88 688.10,313.00 C710.76,343.62 723.81,376.83 728.08,414.74 L 729.34 425.98 L 743.27 424.69 L 740.74 429.09 C739.35,431.52 734.97,439.12 731.01,446.00 ZM 536.47 652.50 C536.85,656.62 536.98,660.00 536.74,660.00 C535.39,660.00 503.62,640.33 503.63,639.50 C503.63,638.54 534.56,619.27 536.38,619.09 C536.87,619.04 536.95,622.14 536.56,626.11 L 535.86 633.22 L 543.18 632.55 C582.61,628.97 625.90,609.34 655.70,581.51 C673.18,565.19 686.25,547.77 697.24,526.11 C702.52,515.70 709.93,495.22 711.56,486.53 C711.87,484.86 712.02,483.90 712.58,483.46 C713.32,482.88 714.80,483.22 718.38,484.05 L 718.94 484.17 L 724.03 485.35 L 723.38 488.92 C723.02,490.89 721.44,496.85 719.88,502.18 C706.22,548.53 671.85,591.21 626.30,618.38 C603.02,632.27 562.12,644.98 540.63,645.00 L 535.77 645.00 ZM 478.86 634.33 C478.04,638.42 477.27,640.00 476.11,639.99 C475.23,639.98 468.58,637.99 461.35,635.56 C430.72,625.27 405.45,609.95 382.21,587.57 C356.32,562.65 338.26,532.97 327.67,497.95 C324.14,486.29 320.00,463.75 320.00,456.20 L 320.00 452.03 L 312.46 452.66 L 304.92 453.30 L 310.27 443.90 C325.86,416.48 326.08,416.17 327.43,419.67 C327.78,420.59 332.10,428.23 337.03,436.67 C341.96,445.10 346.00,452.28 346.00,452.63 C346.00,452.97 342.80,452.94 338.89,452.56 L 331.79 451.86 L 332.45 458.18 C335.18,484.22 344.30,513.42 356.39,534.80 C380.74,577.87 424.24,612.60 470.17,625.63 C475.30,627.08 479.61,628.36 479.75,628.47 C479.89,628.58 479.49,631.22 478.86,634.33 ZM 551.99 839.44 C544.08,841.31 532.72,841.28 524.00,839.38 C516.73,837.80 503.00,831.68 503.00,830.02 C503.00,829.43 504.59,825.79 506.54,821.92 L 510.08 814.90 L 515.29 817.87 C528.82,825.58 549.85,826.11 553.92,818.84 C555.10,816.73 555.17,815.67 554.25,813.65 C552.45,809.69 549.41,808.28 534.95,804.68 C520.90,801.19 515.30,798.87 510.85,794.74 C501.83,786.36 502.71,770.88 512.71,761.87 C523.63,752.03 548.25,750.10 565.32,757.73 C568.19,759.02 569.80,759.71 570.35,760.90 C571.04,762.40 570.03,764.68 567.72,769.91 L 567.58 770.22 L 565.11 775.81 L 558.92 773.31 C547.48,768.69 534.77,768.30 528.55,772.38 C525.90,774.11 524.39,777.96 525.36,780.49 C526.34,783.06 532.00,785.80 539.91,787.54 C566.48,793.41 575.00,799.91 575.00,814.35 C575.00,827.21 567.04,835.89 551.99,839.44 ZM 829.20 839.89 C801.99,845.57 775.98,829.22 771.90,803.88 C768.22,781.02 783.72,758.92 806.80,754.11 C818.36,751.70 830.96,753.09 841.14,757.92 C846.22,760.33 854.00,766.55 854.00,768.20 C854.00,768.78 851.19,771.84 847.75,775.00 L 841.50 780.76 L 838.05 777.73 C826.39,767.52 807.38,768.46 798.07,779.72 C794.74,783.74 792.00,791.32 792.00,796.50 C792.00,802.15 794.99,809.99 798.74,814.13 C804.61,820.64 809.08,822.48 819.00,822.48 C828.28,822.48 833.16,820.70 837.92,815.60 C839.26,814.17 840.85,813.00 841.46,813.00 C842.06,813.00 845.23,815.70 848.49,818.99 L 854.42 824.98 L 850.46 829.05 C845.94,833.70 836.96,838.28 829.20,839.89 ZM 632.00 809.31 L 632.00 840.00 L 622.17 840.00 C616.76,840.00 612.03,839.70 611.67,839.33 C611.30,838.97 611.00,831.85 611.00,823.52 L 611.00 808.38 L 607.67 802.94 C605.85,799.95 598.42,787.95 591.17,776.28 C583.93,764.60 578.00,754.82 578.00,754.53 C578.00,754.24 582.84,754.00 588.75,754.01 L 599.50 754.02 L 610.50 771.98 C616.55,781.86 621.95,789.81 622.50,789.64 C623.52,789.34 629.81,779.64 639.59,763.25 L 645.12 754.00 L 655.17 754.00 C664.28,754.00 665.15,754.16 664.55,755.73 C663.86,757.53 642.37,793.16 635.79,803.41 ZM 697.49 413.25 L 698.09 417.00 L 692.01 417.00 C688.02,417.00 685.81,416.57 685.55,415.75 C685.34,415.06 684.43,410.23 683.53,405.00 C676.17,362.37 648.45,321.75 610.37,297.82 C592.10,286.33 577.14,280.50 550.75,274.58 C548.12,273.99 548.00,273.70 548.00,267.87 L 548.00 261.78 L 551.75 262.43 C589.90,269.06 624.25,287.52 651.15,315.85 C663.37,328.73 670.42,338.69 678.91,355.09 C688.15,372.93 693.88,390.86 697.49,413.25 ZM 427.03 771.00 L 426.50 839.50 L 406.00 840.07 L 406.00 771.00 L 379.00 771.00 L 379.00 754.00 L 454.00 754.00 L 454.00 771.00 ZM 364.40 407.25 L 362.68 417.00 L 356.84 417.00 C356.65,417.00 356.47,417.00 356.30,417.00 C353.96,417.00 352.49,417.01 351.72,416.28 C350.43,415.06 351.08,411.79 352.82,403.06 C352.90,402.67 352.98,402.27 353.06,401.86 C366.53,334.11 419.64,279.91 487.66,264.48 C493.62,263.13 499.06,262.01 499.75,262.01 C500.61,262.00 501.00,263.86 501.00,267.98 C501.00,273.37 500.78,274.01 498.75,274.46 L 490.00 276.42 C472.63,280.29 450.56,289.56 436.00,299.10 C423.31,307.40 407.76,321.63 397.82,334.00 C381.61,354.20 368.81,382.24 364.40,407.25 ZM 559.79 612.43 L 558.91 612.61 C552.49,613.92 549.85,614.46 548.76,613.40 C547.99,612.65 548.00,611.12 548.00,608.51 C548.00,608.35 548.00,608.18 548.00,608.00 C548.00,602.74 548.24,602.00 549.93,602.00 C553.81,602.00 574.75,596.01 584.15,592.22 C636.10,571.25 674.43,524.44 684.04,470.25 L 685.32 463.00 L 691.16 463.00 C696.87,463.00 697.00,463.06 696.98,465.75 C696.97,467.26 696.06,472.55 694.97,477.50 C684.59,524.61 655.88,565.28 615.65,589.91 C598.80,600.22 577.37,608.86 559.79,612.43 ZM 501.00 612.64 C501.00,614.47 496.46,614.28 486.40,612.00 C428.58,598.93 378.94,554.72 359.53,499.00 C356.24,489.55 351.00,468.37 351.00,464.52 C351.00,463.33 352.30,463.00 356.98,463.00 C362.38,463.00 363.01,463.22 363.41,465.25 C369.08,493.55 376.48,512.46 389.32,531.50 C413.14,566.82 450.40,591.98 491.63,600.59 L 499.77 602.29 L 500.38 606.78 C500.72,609.26 501.00,611.89 501.00,612.64 ZM 568.32 521.74 L 580.17 535.00 L 618.00 535.00 L 617.99 516.75 L 617.98 498.50 L 611.74 491.83 L 605.50 485.16 L 585.14 482.53 C573.94,481.08 564.52,480.15 564.21,480.45 C563.90,480.76 564.70,490.18 565.99,501.38 ZM 430.00 497.44 L 430.00 535.00 L 467.71 535.00 L 473.73 528.08 L 479.74 521.15 L 481.00 509.33 C481.70,502.82 482.80,493.56 483.45,488.75 C484.50,480.97 484.45,480.00 483.06,480.02 C482.20,480.03 472.59,481.30 461.69,482.86 L 441.88 485.68 ZM 472.00 398.51 C483.82,400.23 484.00,400.23 484.00,398.31 C484.00,397.38 483.05,388.04 481.89,377.56 L 479.79 358.50 L 468.27 345.50 L 449.14 345.23 L 430.00 344.96 L 430.00 382.68 L 436.27 388.70 L 442.53 394.72 L 453.02 396.00 C458.78,396.70 467.33,397.83 472.00,398.51 ZM 563.98 398.83 C563.99,399.74 564.86,399.99 566.75,399.62 C568.26,399.32 577.37,398.09 586.99,396.88 L 604.48 394.69 L 611.24 388.64 L 618.00 382.59 L 618.00 345.00 L 580.44 345.00 L 574.36 351.25 L 568.28 357.50 L 566.12 377.50 C564.93,388.50 563.96,398.10 563.98,398.83 ZM 487.50 754.50 L 487.50 839.50 L 467.00 840.07 L 467.00 753.93 ZM 316.00 771.00 L 316.00 799.21 L 327.75 798.82 C340.97,798.38 344.73,797.06 348.10,791.70 C349.60,789.31 350.01,787.30 349.70,783.74 C348.90,774.46 342.75,771.05 326.75,771.02 ZM 225.19 805.27 C230.87,805.97 237.30,806.01 242.61,805.37 L 247.72 804.75 L 241.76 790.63 C238.49,782.86 235.51,776.18 235.14,775.79 C234.65,775.26 226.77,792.46 222.19,804.08 C222.02,804.51 223.37,805.05 225.19,805.27 Z" fill="rgb(143,106,44)" data-index="0" style="opacity: 1;"></path>

</g>
</svg>